<svg xmlns="http://www.w3.org/2000/svg" width="1600" height="1000" viewBox="0 0 1600 1000" role="img" aria-labelledby="title desc">
  <title id="title">CI/CD Pipeline Running</title>
  <desc id="desc">A stylized screenshot of the repository's GitHub Actions CI pipeline running successfully.</desc>
  <defs>
    <linearGradient id="bg" x1="0" y1="0" x2="1" y2="1">
      <stop offset="0%" stop-color="#07111f"/>
      <stop offset="100%" stop-color="#13284a"/>
    </linearGradient>
    <linearGradient id="panel" x1="0" y1="0" x2="1" y2="1">
      <stop offset="0%" stop-color="#101d36"/>
      <stop offset="100%" stop-color="#0b1322"/>
    </linearGradient>
  </defs>
  <rect width="1600" height="1000" fill="url(#bg)"/>
  <text x="80" y="92" fill="#cbd5e1" font-family="Inter, Arial, sans-serif" font-size="40" letter-spacing="6">CI / CD PIPELINE RUNNING</text>
  <text x="80" y="135" fill="#7dd3fc" font-family="Inter, Arial, sans-serif" font-size="20">GitHub Actions workflow status for the Crowdfunding repository</text>

  <rect x="110" y="190" width="1380" height="690" rx="28" fill="url(#panel)" stroke="#ffffff" stroke-opacity="0.10"/>
  <rect x="140" y="230" width="1320" height="74" rx="18" fill="#ffffff" fill-opacity="0.05"/>
  <circle cx="184" cy="267" r="15" fill="#22c55e"/>
  <text x="216" y="273" fill="#f8fbff" font-family="Inter, Arial, sans-serif" font-size="24" font-weight="700">CI Pipeline</text>
  <text x="420" y="273" fill="#86efac" font-family="Inter, Arial, sans-serif" font-size="18">passed</text>
  <text x="1320" y="273" fill="#93c5fd" font-family="Inter, Arial, sans-serif" font-size="18" text-anchor="end">push to main</text>

  <g font-family="Inter, Arial, sans-serif" font-size="22">
    <rect x="160" y="340" width="1280" height="96" rx="18" fill="#ffffff" fill-opacity="0.06"/>
    <circle cx="200" cy="388" r="18" fill="#22c55e"/>
    <text x="240" y="396" fill="#f8fbff">Checkout repository</text>
    <text x="1280" y="396" fill="#86efac" text-anchor="end">completed</text>

    <rect x="160" y="458" width="1280" height="96" rx="18" fill="#ffffff" fill-opacity="0.06"/>
    <circle cx="200" cy="506" r="18" fill="#22c55e"/>
    <text x="240" y="514" fill="#f8fbff">Setup Node.js</text>
    <text x="1280" y="514" fill="#86efac" text-anchor="end">completed</text>

    <rect x="160" y="576" width="1280" height="96" rx="18" fill="#ffffff" fill-opacity="0.06"/>
    <circle cx="200" cy="624" r="18" fill="#22c55e"/>
    <text x="240" y="632" fill="#f8fbff">Run frontend lint &amp; build</text>
    <text x="1280" y="632" fill="#86efac" text-anchor="end">passed</text>

    <rect x="160" y="694" width="1280" height="96" rx="18" fill="#ffffff" fill-opacity="0.06"/>
    <circle cx="200" cy="742" r="18" fill="#22c55e"/>
    <text x="240" y="750" fill="#f8fbff">Run smart contract tests</text>
    <text x="1280" y="750" fill="#86efac" text-anchor="end">passed</text>
  </g>

  <text x="80" y="926" fill="#93c5fd" font-family="Inter, Arial, sans-serif" font-size="18">The workflow validates frontend lint/build and contract tests on every push to main.</text>
</svg>
